<?xml version="1.0" encoding="UTF-8"?>
<svg version="1.1" xmlns="http://www.w3.org/2000/svg" width="512" height="512">
<path d="M0 0 C0.94036722 -0.00367669 1.88073444 -0.00735338 2.84959763 -0.01114148 C6.00286128 -0.02216042 9.15609195 -0.0260192 12.30937195 -0.02983093 C14.56983545 -0.03609714 16.83029793 -0.04274408 19.09075928 -0.04974365 C26.51868474 -0.07077511 33.94661037 -0.08114809 41.3745575 -0.09111023 C43.93516234 -0.09515872 46.49576707 -0.09927567 49.05637169 -0.10346031 C59.71343524 -0.12033044 70.3704954 -0.13496281 81.02756977 -0.14220905 C83.7911002 -0.14411871 86.55463062 -0.14603907 89.31816101 -0.147995 C90.00495916 -0.14847874 90.69175732 -0.14896248 91.39936753 -0.14946087 C102.5042514 -0.15774631 113.60902702 -0.18305796 124.71386371 -0.21557567 C136.13627376 -0.24874816 147.55860326 -0.26633514 158.98106641 -0.26985329 C165.38560572 -0.27219755 171.78997406 -0.28107625 178.19446754 -0.30631447 C184.22818965 -0.32970664 190.26162955 -0.33378367 196.29538536 -0.32355309 C198.4994946 -0.32306025 200.70361826 -0.32930539 202.90768433 -0.34310913 C224.28026625 -0.46937701 242.4998606 3.24426578 260.69877625 15.14717102 C261.77578796 15.85099915 261.77578796 15.85099915 262.8745575 16.56904602 C264.52910768 17.69639484 266.12210319 18.91325298 267.69877625 20.14717102 C267.69877625 20.80717102 267.69877625 21.46717102 267.69877625 22.14717102 C268.55149109 22.49715149 268.55149109 22.49715149 269.4214325 22.85420227 C283.40513299 30.7934902 290.66894959 49.86505574 294.9370575 64.27217102 C296.4219849 69.8768201 296.84915097 75.07739405 296.85267639 80.87220764 C296.85705865 81.75061601 296.8614409 82.62902438 296.86595595 83.53405118 C296.87931074 86.47768449 296.88551548 89.42128788 296.89164734 92.36494446 C296.89955125 94.47600437 296.90782038 96.58706295 296.91642761 98.69812012 C296.94262578 105.63424901 296.95795834 112.57038384 296.97221375 119.50654602 C296.97757533 121.89873 296.98295284 124.29091394 296.9883461 126.68309784 C297.00997628 136.64102023 297.02870918 146.59894102 297.03996849 156.55688095 C297.0561813 170.80002634 297.0892929 185.04289779 297.14636934 199.28593993 C297.18517618 209.31424891 297.20461419 219.34248496 297.20988905 229.37086701 C297.21352928 235.35239306 297.22540805 241.33362679 297.25799179 247.31507111 C297.28825969 252.95241283 297.29431782 258.58928826 297.28260803 264.22669411 C297.28238882 266.28364877 297.29056571 268.34062625 297.30826187 270.39750481 C297.50250091 294.29676199 291.01430279 313.7040025 275.116745 331.73310852 C272.69877625 334.14717102 272.69877625 334.14717102 269.69877625 335.14717102 C269.69877625 335.80717102 269.69877625 336.46717102 269.69877625 337.14717102 C266.23723778 340.14717102 266.23723778 340.14717102 263.69877625 340.14717102 C263.69877625 340.80717102 263.69877625 341.46717102 263.69877625 342.14717102 C261.54046361 343.70544213 259.41527894 345.09696838 257.13627625 346.45967102 C256.4682196 346.86121399 255.80016296 347.26275696 255.11186218 347.6764679 C248.27904794 351.63113083 241.2678944 353.97347555 233.69877625 356.14717102 C232.70877625 356.47717102 231.71877625 356.80717102 230.69877625 357.14717102 C222.37329936 359.1331702 214.31038529 359.42324719 205.7820282 359.3742218 C204.42081714 359.37365628 203.05960548 359.373977 201.69839478 359.37510681 C198.0379511 359.37567581 194.37764106 359.36399571 190.71722817 359.3499589 C186.87890585 359.33737523 183.04057976 359.33627506 179.20223999 359.33390808 C171.94938698 359.32771559 164.69659495 359.31133528 157.44376868 359.2912091 C149.18007604 359.26878027 140.91638033 359.25783918 132.65266478 359.24781823 C115.66800012 359.22696684 98.68339465 359.1918347 81.69877625 359.14717102 C80.52810632 352.66676238 80.557944 346.28809377 80.56938171 339.71601868 C80.56675323 337.85210983 80.56675323 337.85210983 80.56407166 335.95054626 C80.56042444 332.53759297 80.56128706 329.1247004 80.56445074 325.71175051 C80.56701527 322.06663727 80.56462265 318.42152632 80.56306458 314.77641296 C80.56124133 308.59416759 80.56363935 302.41193411 80.56840515 296.22969055 C80.57313314 290.02851059 80.57333044 283.82735474 80.56840515 277.62617493 C80.53517357 234.79015625 80.89535844 191.97599009 81.69877625 149.14717102 C80.76702576 148.84843079 79.83527527 148.54969055 78.87528992 148.24189758 C75.60581916 147.11513508 72.96494229 145.68629479 70.01127625 143.89717102 C63.14502797 139.80610172 56.16236728 135.97626286 49.09721375 132.24092102 C42.13817704 128.55777583 35.28602977 124.76671653 28.50737 120.75654602 C24.33063241 118.36319986 20.03713353 116.22996644 15.69877625 114.14717102 C15.69877625 113.48717102 15.69877625 112.82717102 15.69877625 112.14717102 C14.99752625 112.06467102 14.29627625 111.98217102 13.57377625 111.89717102 C10.7201747 111.15275323 8.97120582 110.05151983 6.5933075 108.36592102 C4.25341043 106.86066765 1.8252269 105.67823968 -0.67622375 104.45967102 C-7.75048857 100.98844791 -14.56316671 97.10303244 -21.4120636 93.21357727 C-26.32393852 90.44088799 -31.2553951 87.67008535 -36.30122375 85.14717102 C-36.29349316 86.18960842 -36.29349316 86.18960842 -36.28560638 87.25310516 C-36.15873676 104.37478698 -36.03353851 121.49648026 -35.91007233 138.61818695 C-35.85032058 146.8990131 -35.79005273 155.17983483 -35.72846985 163.46064758 C-35.66314766 172.24966316 -35.59934804 181.03868889 -35.53677368 189.82772446 C-35.51998176 192.17730069 -35.50296012 194.52687517 -35.48591614 196.87644958 C-35.38136105 211.37946169 -35.27825119 225.8819562 -35.30513 240.38545227 C-35.30759609 241.82907261 -35.30759609 241.82907261 -35.310112 243.30185699 C-35.31904729 247.52289621 -35.33494934 251.74372479 -35.36360168 255.9646759 C-35.39670612 262.43988895 -35.36189391 268.74571468 -34.30122375 275.14717102 C-33.96348938 274.46010071 -33.625755 273.7730304 -33.27778625 273.06513977 C-32.60876282 271.71355774 -32.60876282 271.71355774 -31.92622375 270.33467102 C-31.26493469 268.99469055 -31.26493469 268.99469055 -30.59028625 267.62763977 C-29.30122375 265.14717102 -29.30122375 265.14717102 -27.30122375 262.14717102 C-26.64122375 262.14717102 -25.98122375 262.14717102 -25.30122375 262.14717102 C-24.96091125 261.31185852 -24.96091125 261.31185852 -24.61372375 260.45967102 C-19.84165441 252.05173932 -9.82549368 247.06372747 -1.30122375 243.14717102 C-2.84809875 242.03342102 -2.84809875 242.03342102 -4.42622375 240.89717102 C-10.2649617 235.90101517 -13.28934662 228.81522564 -15.30122375 221.52217102 C-15.30122375 212.55704325 -12.89436546 205.22154729 -7.30122375 198.14717102 C0.16534547 191.03552674 6.47366161 188.73767872 16.67314148 188.78144836 C22.31442727 188.92207733 26.21132368 189.76578071 30.69877625 193.14717102 C31.30979187 193.57127258 31.9208075 193.99537415 32.55033875 194.43232727 C38.19471803 198.7436723 41.69402907 204.36004704 43.51127625 211.20967102 C44.11563216 220.67791363 43.71921852 229.29680709 37.69877625 237.14717102 C35.48104655 239.30766898 33.15469651 241.26383891 30.69877625 243.14717102 C33.81844356 246.26683834 37.80435064 247.71508206 41.75346375 249.61201477 C44.32617715 250.95296486 46.53067459 252.22520651 48.69877625 254.14717102 C48.69877625 254.80717102 48.69877625 255.46717102 48.69877625 256.14717102 C49.68877625 256.47717102 50.67877625 256.80717102 51.69877625 257.14717102 C64.50194105 270.63387234 67.17910739 284.92861408 67.02690125 302.93623352 C67.02383729 304.53237224 67.02196602 306.12851366 67.02122498 307.72465515 C67.01665475 311.04447402 67.00234536 314.36404585 66.98002625 317.68379211 C66.95151463 321.94658676 66.94078813 326.2091897 66.93634415 330.47207069 C66.93220083 333.75590436 66.92239627 337.03969914 66.91046906 340.32351303 C66.90476372 341.89685633 66.90000589 343.47020335 66.89620209 345.0435524 C66.88936623 347.22871345 66.87575298 349.41371926 66.85990906 351.59883118 C66.84966705 353.46434128 66.84966705 353.46434128 66.83921814 355.36753845 C66.69877625 358.14717102 66.69877625 358.14717102 65.69877625 359.14717102 C63.48073134 359.30784077 61.25763533 359.39909752 59.03471375 359.46357727 C57.9975975 359.49502083 57.9975975 359.49502083 56.93952942 359.52709961 C54.65106892 359.59410473 52.36250973 359.65278971 50.07377625 359.70967102 C49.29123474 359.72985291 48.50869324 359.75003479 47.70243835 359.77082825 C42.03489285 359.91489881 36.36703392 360.03509178 30.69877625 360.14717102 C29.96131165 360.16261963 29.22384705 360.17806824 28.46403503 360.19398499 C2.22153844 360.73584133 -23.83054889 360.44365745 -46.48872375 345.31123352 C-48.40409292 343.97589165 -48.40409292 343.97589165 -51.30122375 343.14717102 C-53.00554838 341.51903309 -54.66750255 339.84614441 -56.30122375 338.14717102 C-57.152005 337.35439758 -58.00278625 336.56162415 -58.87934875 335.74482727 C-74.46130065 320.96019747 -84.70348446 300.92357095 -85.43544483 279.15551853 C-85.44478976 277.60910284 -85.44875418 276.06264872 -85.44839478 274.51620483 C-85.45207146 273.66003222 -85.45574815 272.80385961 -85.45953625 271.92174238 C-85.47052869 269.05946049 -85.47440941 266.19721496 -85.47822571 263.33491516 C-85.48449384 261.27957546 -85.49114095 259.22423688 -85.49813843 257.16889954 C-85.51914422 250.42338342 -85.52953938 243.67786717 -85.539505 236.93232727 C-85.54355423 234.60541205 -85.5476712 232.27849694 -85.55185509 229.95158195 C-85.57090119 219.01496317 -85.58513196 208.0783511 -85.59346706 197.14171892 C-85.60322963 184.54186677 -85.62952614 171.94219074 -85.66996795 159.34240061 C-85.70019453 149.58840893 -85.71494224 139.83446755 -85.71824807 130.08042997 C-85.72059157 124.2622304 -85.72946044 118.44421911 -85.75470924 112.62607002 C-85.77810878 107.14553235 -85.78217561 101.66530534 -85.77194786 96.18473053 C-85.77145523 94.18338165 -85.77769429 92.18201686 -85.79150391 90.18071556 C-85.95495136 65.06998867 -78.33080556 42.6787979 -60.55513 24.34638977 C-56.3938716 20.62720501 -51.9781178 17.48472324 -47.30122375 14.45967102 C-46.73218323 14.09124084 -46.1631427 13.72281067 -45.57685852 13.34321594 C-38.3834287 8.79670586 -31.35612869 5.60836166 -23.11372375 3.45967102 C-21.94293274 3.14159485 -21.94293274 3.14159485 -20.74848938 2.8170929 C-18.60312988 2.24026596 -16.45986257 1.67216366 -14.30122375 1.14717102 C-13.62489301 0.97470761 -12.94856226 0.80224421 -12.25173664 0.62455463 C-8.15805808 -0.03778955 -4.14060333 -0.00087022 0 0 Z M5.69877625 51.14717102 C14.59058969 56.19181017 23.52354884 61.15030405 32.51127625 66.02217102 C41.86995591 71.1039091 51.09785208 76.38266273 60.29496765 81.74971008 C65.36179436 84.69532415 70.45033204 87.60331017 75.54667664 90.49751282 C80.3745496 93.2393727 85.18030541 96.01308817 89.96440125 98.83076477 C92.04249063 100.04046137 94.12061484 101.25009814 96.19877625 102.45967102 C97.1723407 103.04152161 98.14590515 103.62337219 99.14897156 104.22285461 C100.0625946 104.75088684 100.97621765 105.27891907 101.91752625 105.82295227 C102.72125671 106.29644104 103.52498718 106.76992981 104.35307312 107.25776672 C107.27411249 108.36531735 108.74424079 108.06491727 111.69877625 107.14717102 C114.29176056 105.89074705 116.80236255 104.59555754 119.32377625 103.20967102 C120.8456438 102.38756039 122.36778967 101.56596481 123.8901825 100.74482727 C124.67924988 100.31701965 125.46831726 99.88921204 126.28129578 99.44844055 C129.46219063 97.73624407 132.6644639 96.06653576 135.86747742 94.39619446 C143.32359191 90.50578326 150.6895672 86.49195217 157.99638367 82.3285675 C163.24062653 79.35917351 168.60128741 76.67798372 174.01127625 74.02217102 C178.27598388 71.8898172 182.41938273 69.54773121 186.57377625 67.20967102 C194.21129419 62.91621344 201.95966879 58.91634716 209.82865906 55.06611633 C213.12791479 53.44491547 216.41227778 51.79404774 219.69877625 50.14717102 C219.69877625 49.81717102 219.69877625 49.48717102 219.69877625 49.14717102 C192.38726779 49.10048896 165.0757653 49.0652008 137.76422501 49.04354668 C125.08354103 49.03322589 112.40288183 49.01915025 99.72221375 48.99629211 C88.67215927 48.97638279 77.62212272 48.96346042 66.57205081 48.95899403 C60.71895806 48.95638249 54.86591661 48.95022757 49.01284027 48.93571091 C43.50704438 48.92216582 38.00132107 48.91794215 32.4955101 48.92095566 C30.47181428 48.92040412 28.4481161 48.91640844 26.42443466 48.90876007 C23.66693526 48.89884694 20.90971188 48.90118886 18.15220642 48.90666199 C17.34675864 48.9008363 16.54131087 48.89501062 15.71145558 48.8890084 C11.89897945 48.90953865 8.92821 48.98574231 5.69877625 51.14717102 Z M239.72612 93.76826477 C239.01081619 94.14644852 238.29551239 94.52463226 237.55853271 94.91427612 C236.03044098 95.72290414 234.50290647 96.53258586 232.97587585 97.34321594 C230.69955739 98.55109233 228.42101372 99.75467935 226.14213562 100.9577179 C218.07287823 105.22809569 210.05620895 109.57419232 202.12905884 114.1038208 C196.87639515 117.09457692 191.51507762 119.80207244 186.0776825 122.44404602 C181.88137281 124.55918015 177.79541427 126.84642949 173.69877625 129.14717102 C163.56092076 134.80299376 153.42636297 140.42389069 142.9875946 145.50971985 C138.76631064 147.57220489 134.80044399 149.80336088 130.69877625 152.14717102 C130.69877625 204.28717102 130.69877625 256.42717102 130.69877625 310.14717102 C135.31877625 310.14717102 139.93877625 310.14717102 144.69877625 310.14717102 C144.73615906 308.7214679 144.77354187 307.29576477 144.8120575 305.82685852 C145.74474643 276.44073357 145.74474643 276.44073357 154.69877625 265.14717102 C155.18990906 264.41111633 155.68104187 263.67506165 156.1870575 262.91670227 C162.44041531 253.90131544 172.19661275 247.23604264 182.69877625 244.14717102 C182.36877625 243.48717102 182.03877625 242.82717102 181.69877625 242.14717102 C180.70877625 242.14717102 179.71877625 242.14717102 178.69877625 242.14717102 C178.36877625 241.15717102 178.03877625 240.16717102 177.69877625 239.14717102 C177.03877625 239.14717102 176.37877625 239.14717102 175.69877625 239.14717102 C175.43065125 238.59029602 175.16252625 238.03342102 174.88627625 237.45967102 C173.73456754 235.10973356 173.73456754 235.10973356 172.210495 232.91279602 C168.42539502 225.98811699 168.0556431 217.37891094 169.69877625 209.77217102 C172.12000946 201.77250182 176.33713257 196.21956965 183.69877625 192.14717102 C187.88761722 190.1047397 191.78858753 189.72706592 196.38627625 189.70967102 C197.09091003 189.70580383 197.79554382 189.70193665 198.52153015 189.69795227 C204.06406002 189.81968251 208.10540858 191.14104838 212.87846375 194.05342102 C214.63055975 195.31884991 214.63055975 195.31884991 216.69877625 195.14717102 C217.02877625 196.13717102 217.35877625 197.12717102 217.69877625 198.14717102 C218.35877625 198.14717102 219.01877625 198.14717102 219.69877625 198.14717102 C219.96690125 198.82779602 220.23502625 199.50842102 220.51127625 200.20967102 C221.34925984 202.28257781 222.26947035 204.32314674 223.24565125 206.33467102 C224.90060904 210.20435922 225.198299 213.90863883 225.13627625 218.08467102 C225.1301532 218.78761292 225.12403015 219.49055481 225.11772156 220.21479797 C224.95092451 225.74412013 223.98332686 229.72308243 220.69877625 234.14717102 C219.99752625 235.11654602 219.29627625 236.08592102 218.57377625 237.08467102 C216.69877625 239.14717102 216.69877625 239.14717102 214.69877625 240.14717102 C214.69877625 240.80717102 214.69877625 241.46717102 214.69877625 242.14717102 C213.70877625 242.47717102 212.71877625 242.80717102 211.69877625 243.14717102 C213.84005417 245.54779627 215.5165292 246.62705084 218.57377625 247.58467102 C222.24027015 248.85176818 224.73361712 250.6180647 227.69877625 253.14717102 C228.35877625 253.14717102 229.01877625 253.14717102 229.69877625 253.14717102 C229.69877625 253.80717102 229.69877625 254.46717102 229.69877625 255.14717102 C231.34992325 256.49967578 233.01940423 257.82987637 234.69877625 259.14717102 C240.74354562 265.46209769 244.27804527 271.77016777 246.69877625 280.14717102 C247.02877625 280.14717102 247.35877625 280.14717102 247.69877625 280.14717102 C247.69877625 217.44717102 247.69877625 154.74717102 247.69877625 90.14717102 C245.09951125 90.14717102 242.03824049 92.5406014 239.72612 93.76826477 Z " fill="#5E9FD1" transform="translate(145.3012237548828,90.85282897949219)"/>
<path d="M0 0 C0.94036722 -0.00367669 1.88073444 -0.00735338 2.84959763 -0.01114148 C6.00286128 -0.02216042 9.15609195 -0.0260192 12.30937195 -0.02983093 C14.56983545 -0.03609714 16.83029793 -0.04274408 19.09075928 -0.04974365 C26.51868474 -0.07077511 33.94661037 -0.08114809 41.3745575 -0.09111023 C43.93516234 -0.09515872 46.49576707 -0.09927567 49.05637169 -0.10346031 C59.71343524 -0.12033044 70.3704954 -0.13496281 81.02756977 -0.14220905 C83.7911002 -0.14411871 86.55463062 -0.14603907 89.31816101 -0.147995 C90.00495916 -0.14847874 90.69175732 -0.14896248 91.39936753 -0.14946087 C102.5042514 -0.15774631 113.60902702 -0.18305796 124.71386371 -0.21557567 C136.13627376 -0.24874816 147.55860326 -0.26633514 158.98106641 -0.26985329 C165.38560572 -0.27219755 171.78997406 -0.28107625 178.19446754 -0.30631447 C184.22818965 -0.32970664 190.26162955 -0.33378367 196.29538536 -0.32355309 C198.4994946 -0.32306025 200.70361826 -0.32930539 202.90768433 -0.34310913 C222.84935125 -0.46092325 240.37520207 2.51679596 257.69877625 13.14717102 C256.21377625 13.64217102 256.21377625 13.64217102 254.69877625 14.14717102 C254.69877625 14.80717102 254.69877625 15.46717102 254.69877625 16.14717102 C252.70546783 17.49048756 250.70492759 18.82311114 248.69877625 20.14717102 C248.03877625 21.13717102 247.37877625 22.12717102 246.69877625 23.14717102 C245.37877625 23.14717102 244.05877625 23.14717102 242.69877625 23.14717102 C242.36877625 24.13717102 242.03877625 25.12717102 241.69877625 26.14717102 C239.3276825 28.16279602 239.3276825 28.16279602 236.26127625 30.39717102 C235.72647644 30.78832092 235.19167664 31.17947083 234.64067078 31.58247375 C232.99895371 32.77863746 231.34940016 33.96334018 229.69877625 35.14717102 C228.72553406 35.85486633 227.75229187 36.56256165 226.7495575 37.29170227 C219.9756347 42.14717102 219.9756347 42.14717102 217.69877625 42.14717102 C217.69877625 42.80717102 217.69877625 43.46717102 217.69877625 44.14717102 C216.19877625 45.77217102 216.19877625 45.77217102 214.69877625 47.14717102 C218.65877625 47.64217102 218.65877625 47.64217102 222.69877625 48.14717102 C218.87818008 50.69423513 215.81139801 50.41667025 211.38578796 50.38095093 C210.52779539 50.38195421 209.66980282 50.3829575 208.78581047 50.38399118 C205.89993688 50.38494667 203.01430463 50.37158102 200.12846375 50.35835266 C198.06395033 50.35615232 195.9994358 50.35484615 193.93492126 50.35437012 C189.48396197 50.35143267 185.03307586 50.34217146 180.58213806 50.32806587 C173.54924092 50.30584604 166.51637115 50.29771746 159.48344421 50.29156494 C148.36294179 50.28017431 137.24247969 50.25944063 126.12199974 50.23466724 C106.20000036 50.19036483 86.27798682 50.15718624 66.35595131 50.1344232 C59.35953449 50.12599776 52.36315742 50.11195437 45.36676025 50.09345067 C41.0203505 50.08283095 36.67394113 50.0762322 32.32752228 50.0706501 C30.30662916 50.06717041 28.2857382 50.06194643 26.26485443 50.05488205 C23.51380962 50.04547452 20.76282325 50.04215977 18.01176453 50.04037476 C17.20545027 50.03609767 16.39913601 50.03182059 15.56838799 50.0274139 C12.34415103 50.03073463 9.78059689 50.11989747 6.69877625 51.14717102 C7.44901062 51.51068665 8.199245 51.87420227 8.97221375 52.24873352 C9.99572937 52.7514679 11.019245 53.25420227 12.07377625 53.77217102 C13.07151062 54.25943665 14.069245 54.74670227 15.09721375 55.24873352 C17.93395913 56.69545327 20.64625232 58.30138539 23.366745 59.95576477 C29.99540349 63.97540326 36.84243773 67.57245597 43.68901062 71.20381165 C49.68811474 74.41747964 55.47881762 77.81902701 61.17338562 81.54756165 C64.69280808 83.77680139 68.345943 85.72088826 72.01908875 87.68232727 C74.60975048 89.09850533 77.12171311 90.60067452 79.63627625 92.14717102 C84.26014295 94.9687638 89.0418281 97.3413504 93.9370575 99.65498352 C96.82344657 101.21453179 99.20203897 103.0279004 101.69877625 105.14717102 C98.03210958 105.14717102 94.36544291 105.14717102 90.69877625 105.14717102 C91.02877625 104.15717102 91.35877625 103.16717102 91.69877625 102.14717102 C90.70877625 102.14717102 89.71877625 102.14717102 88.69877625 102.14717102 C88.36877625 101.15717102 88.03877625 100.16717102 87.69877625 99.14717102 C84.64607162 98.98905714 84.64607162 98.98905714 81.69877625 100.14717102 C82.02877625 102.45717102 82.35877625 104.76717102 82.69877625 107.14717102 C82.03877625 107.14717102 81.37877625 107.14717102 80.69877625 107.14717102 C80.88440125 107.72467102 81.07002625 108.30217102 81.26127625 108.89717102 C81.74616191 111.39086874 81.39784046 112.73928315 80.69877625 115.14717102 C80.69877625 116.13717102 80.69877625 117.12717102 80.69877625 118.14717102 C79.70877625 118.80717102 78.71877625 119.46717102 77.69877625 120.14717102 C77.36877625 120.47717102 77.03877625 120.80717102 76.69877625 121.14717102 C77.35877625 121.47717102 78.01877625 121.80717102 78.69877625 122.14717102 C77.69877625 124.14717102 77.69877625 124.14717102 75.19877625 125.27217102 C72.55562696 126.82963686 72.55562696 126.82963686 72.28862 129.01435852 C72.18726837 130.43328124 72.09089223 131.85256833 71.9995575 133.27217102 C71.69877625 135.14717102 71.69877625 135.14717102 69.82377625 137.14717102 C67.69877625 138.14717102 67.69877625 138.14717102 64.69877625 138.14717102 C65.35877625 138.47717102 66.01877625 138.80717102 66.69877625 139.14717102 C66.69877625 139.80717102 66.69877625 140.46717102 66.69877625 141.14717102 C61.85741423 139.72455541 57.66554233 137.60401386 53.32377625 135.08467102 C51.90722401 134.27457505 50.49055387 133.46468524 49.07377625 132.65498352 C48.35190125 132.24022766 47.63002625 131.8254718 46.88627625 131.39814758 C44.05770409 129.78055788 41.21357927 128.19160322 38.36894226 126.60249329 C32.38170824 123.25687523 26.44828637 119.85426852 20.616745 116.24092102 C18.59004476 115.002452 18.59004476 115.002452 15.69877625 114.14717102 C15.69877625 113.48717102 15.69877625 112.82717102 15.69877625 112.14717102 C14.99752625 112.06467102 14.29627625 111.98217102 13.57377625 111.89717102 C10.7201747 111.15275323 8.97120582 110.05151983 6.5933075 108.36592102 C4.25341043 106.86066765 1.8252269 105.67823968 -0.67622375 104.45967102 C-7.75048857 100.98844791 -14.56316671 97.10303244 -21.4120636 93.21357727 C-26.32393852 90.44088799 -31.2553951 87.67008535 -36.30122375 85.14717102 C-36.29349316 86.18960842 -36.29349316 86.18960842 -36.28560638 87.25310516 C-36.15873676 104.37478698 -36.03353851 121.49648026 -35.91007233 138.61818695 C-35.85032058 146.8990131 -35.79005273 155.17983483 -35.72846985 163.46064758 C-35.66314766 172.24966316 -35.59934804 181.03868889 -35.53677368 189.82772446 C-35.51998176 192.17730069 -35.50296012 194.52687517 -35.48591614 196.87644958 C-35.38136105 211.37946169 -35.27825119 225.8819562 -35.30513 240.38545227 C-35.30759609 241.82907261 -35.30759609 241.82907261 -35.310112 243.30185699 C-35.31904729 247.52289621 -35.33494934 251.74372479 -35.36360168 255.9646759 C-35.39670612 262.43988895 -35.36189391 268.74571468 -34.30122375 275.14717102 C-33.96348938 274.46010071 -33.625755 273.7730304 -33.27778625 273.06513977 C-32.60876282 271.71355774 -32.60876282 271.71355774 -31.92622375 270.33467102 C-31.26493469 268.99469055 -31.26493469 268.99469055 -30.59028625 267.62763977 C-29.30122375 265.14717102 -29.30122375 265.14717102 -27.30122375 262.14717102 C-26.64122375 262.14717102 -25.98122375 262.14717102 -25.30122375 262.14717102 C-24.96091125 261.31185852 -24.96091125 261.31185852 -24.61372375 260.45967102 C-19.84165441 252.05173932 -9.82549368 247.06372747 -1.30122375 243.14717102 C-2.84809875 242.03342102 -2.84809875 242.03342102 -4.42622375 240.89717102 C-10.2649617 235.90101517 -13.28934662 228.81522564 -15.30122375 221.52217102 C-15.30122375 212.55704325 -12.89436546 205.22154729 -7.30122375 198.14717102 C0.16534547 191.03552674 6.47366161 188.73767872 16.67314148 188.78144836 C22.31442727 188.92207733 26.21132368 189.76578071 30.69877625 193.14717102 C31.30979187 193.57127258 31.9208075 193.99537415 32.55033875 194.43232727 C38.19471803 198.7436723 41.69402907 204.36004704 43.51127625 211.20967102 C44.11563216 220.67791363 43.71921852 229.29680709 37.69877625 237.14717102 C35.48104655 239.30766898 33.15469651 241.26383891 30.69877625 243.14717102 C33.81844356 246.26683834 37.80435064 247.71508206 41.75346375 249.61201477 C44.32617715 250.95296486 46.53067459 252.22520651 48.69877625 254.14717102 C48.69877625 254.80717102 48.69877625 255.46717102 48.69877625 256.14717102 C49.68877625 256.47717102 50.67877625 256.80717102 51.69877625 257.14717102 C64.50194105 270.63387234 67.17910739 284.92861408 67.02690125 302.93623352 C67.02383729 304.53237224 67.02196602 306.12851366 67.02122498 307.72465515 C67.01665475 311.04447402 67.00234536 314.36404585 66.98002625 317.68379211 C66.95151463 321.94658676 66.94078813 326.2091897 66.93634415 330.47207069 C66.93220083 333.75590436 66.92239627 337.03969914 66.91046906 340.32351303 C66.90476372 341.89685633 66.90000589 343.47020335 66.89620209 345.0435524 C66.88936623 347.22871345 66.87575298 349.41371926 66.85990906 351.59883118 C66.84966705 353.46434128 66.84966705 353.46434128 66.83921814 355.36753845 C66.69877625 358.14717102 66.69877625 358.14717102 65.69877625 359.14717102 C63.48073134 359.30784077 61.25763533 359.39909752 59.03471375 359.46357727 C57.9975975 359.49502083 57.9975975 359.49502083 56.93952942 359.52709961 C54.65106892 359.59410473 52.36250973 359.65278971 50.07377625 359.70967102 C49.29123474 359.72985291 48.50869324 359.75003479 47.70243835 359.77082825 C42.03489285 359.91489881 36.36703392 360.03509178 30.69877625 360.14717102 C29.96131165 360.16261963 29.22384705 360.17806824 28.46403503 360.19398499 C2.22153844 360.73584133 -23.83054889 360.44365745 -46.48872375 345.31123352 C-48.40409292 343.97589165 -48.40409292 343.97589165 -51.30122375 343.14717102 C-53.00554838 341.51903309 -54.66750255 339.84614441 -56.30122375 338.14717102 C-57.152005 337.35439758 -58.00278625 336.56162415 -58.87934875 335.74482727 C-74.46130065 320.96019747 -84.70348446 300.92357095 -85.43544483 279.15551853 C-85.44478976 277.60910284 -85.44875418 276.06264872 -85.44839478 274.51620483 C-85.45207146 273.66003222 -85.45574815 272.80385961 -85.45953625 271.92174238 C-85.47052869 269.05946049 -85.47440941 266.19721496 -85.47822571 263.33491516 C-85.48449384 261.27957546 -85.49114095 259.22423688 -85.49813843 257.16889954 C-85.51914422 250.42338342 -85.52953938 243.67786717 -85.539505 236.93232727 C-85.54355423 234.60541205 -85.5476712 232.27849694 -85.55185509 229.95158195 C-85.57090119 219.01496317 -85.58513196 208.0783511 -85.59346706 197.14171892 C-85.60322963 184.54186677 -85.62952614 171.94219074 -85.66996795 159.34240061 C-85.70019453 149.58840893 -85.71494224 139.83446755 -85.71824807 130.08042997 C-85.72059157 124.2622304 -85.72946044 118.44421911 -85.75470924 112.62607002 C-85.77810878 107.14553235 -85.78217561 101.66530534 -85.77194786 96.18473053 C-85.77145523 94.18338165 -85.77769429 92.18201686 -85.79150391 90.18071556 C-85.95495136 65.06998867 -78.33080556 42.6787979 -60.55513 24.34638977 C-56.3938716 20.62720501 -51.9781178 17.48472324 -47.30122375 14.45967102 C-46.73218323 14.09124084 -46.1631427 13.72281067 -45.57685852 13.34321594 C-38.3834287 8.79670586 -31.35612869 5.60836166 -23.11372375 3.45967102 C-21.94293274 3.14159485 -21.94293274 3.14159485 -20.74848938 2.8170929 C-18.60312988 2.24026596 -16.45986257 1.67216366 -14.30122375 1.14717102 C-13.62489301 0.97470761 -12.94856226 0.80224421 -12.25173664 0.62455463 C-8.15805808 -0.03778955 -4.14060333 -0.00087022 0 0 Z " fill="#87BAE3" transform="translate(145.3012237548828,90.85282897949219)"/>
<path d="M0 0 C7.67201457 4.42416037 11.35966763 10.29349882 14.375 18.5 C14.68081816 21.25236346 14.85349073 23.69931896 14.8125 26.4375 C14.80565186 27.14116699 14.79880371 27.84483398 14.79174805 28.56982422 C14.62011931 34.11465389 13.69537268 38.07995406 10.375 42.5 C9.72724609 43.39332031 9.72724609 43.39332031 9.06640625 44.3046875 C7.75 46 7.75 46 5.375 48.5 C4.715 48.5 4.055 48.5 3.375 48.5 C3.375 49.16 3.375 49.82 3.375 50.5 C2.385 50.995 2.385 50.995 1.375 51.5 C3.39217168 53.80320956 3.39217168 53.80320956 7.0625 54.8125 C11.475701 56.39382979 14.73720738 58.5442935 18.375 61.5 C18.375 62.16 18.375 62.82 18.375 63.5 C18.931875 63.71785156 19.48875 63.93570313 20.0625 64.16015625 C27.54662266 68.49639624 33.39488497 77.77753764 35.89453125 85.88671875 C36.9088443 91.40359216 36.4916588 95.82501181 33.375 100.5 C32.715 100.5 32.055 100.5 31.375 100.5 C31.24931641 101.35078125 31.24931641 101.35078125 31.12109375 102.21875 C29.31127859 107.75242566 23.70789235 112.23189899 18.73046875 114.9375 C12.20257215 117.59955079 6.2675823 118.61769319 -0.78613281 118.72119141 C-1.83820419 118.73845024 -1.83820419 118.73845024 -2.91152954 118.75605774 C-5.21701786 118.79257898 -7.52253371 118.82232 -9.828125 118.8515625 C-11.43284475 118.87468895 -13.03756072 118.89807937 -14.64227295 118.92172241 C-17.99780943 118.97007203 -21.35337003 119.01502473 -24.70898438 119.05761719 C-29.01911297 119.11262925 -33.32905954 119.17643767 -37.63902664 119.24279213 C-40.94854163 119.29273454 -44.2581084 119.33791056 -47.56771088 119.38163376 C-49.15782551 119.40325072 -50.74791998 119.42640565 -52.33798981 119.4510994 C-54.55244381 119.48480679 -56.76688391 119.51207924 -58.98144531 119.53759766 C-60.24321594 119.55456696 -61.50498657 119.57153625 -62.80499268 119.58901978 C-65.625 119.5 -65.625 119.5 -66.625 118.5 C-67.94965932 102.79074469 -67.8083329 86.24079094 -57.625 73.5 C-57.06039063 72.69046875 -56.49578125 71.8809375 -55.9140625 71.046875 C-49.17719467 61.78012853 -40.1986198 55.75344857 -29.625 51.5 C-30.615 51.17 -31.605 50.84 -32.625 50.5 C-34.59765625 48.42578125 -34.59765625 48.42578125 -36.6875 45.8125 C-37.37972656 44.96300781 -38.07195312 44.11351562 -38.78515625 43.23828125 C-43.12100115 36.78514479 -44.18535398 29.12141397 -43.26171875 21.50390625 C-41.42983993 12.68166775 -37.59621612 6.59754857 -30.5 1.0625 C-20.99204535 -4.10486666 -9.87037406 -4.54605463 0 0 Z " fill="#86BAE3" transform="translate(356.625,282.5)"/>
<path d="M0 0 C1.32 0.66 2.64 1.32 4 2 C4 2.99 4 3.98 4 5 C4.99 5 5.98 5 7 5 C7 5.66 7 6.32 7 7 C8.5778125 6.9690625 8.5778125 6.9690625 10.1875 6.9375 C13.32704904 6.98896802 15.96883396 7.26517187 19 8 C18.566875 8.350625 18.13375 8.70125 17.6875 9.0625 C15.78403413 11.24796082 14.95674934 13.47869149 13.89453125 16.1484375 C12.41601445 19.20877358 10.268603 21.48614262 8 24 C8.95865509 26.33075929 8.95865509 26.33075929 12 28 C11.34 28.639375 10.68 29.27875 10 29.9375 C7.88397569 31.64082319 7.88397569 31.64082319 8 33 C7.34964186 34.34136367 6.6837045 35.67532254 6 37 C5.34 37 4.68 37 4 37 C4.33 35.68 4.66 34.36 5 33 C4.01 33.495 4.01 33.495 3 34 C3 35.32 3 36.64 3 38 C2.34 38.66 1.68 39.32 1 40 C-1.10232344 42.8684413 -1.10232344 42.8684413 -2 46 C-2.66 46 -3.32 46 -4 46 C-4.33 46.66 -4.66 47.32 -5 48 C-6.765625 49.2734375 -6.765625 49.2734375 -9 50 C-11.359375 49.1015625 -11.359375 49.1015625 -13.75 47.625 C-14.94882813 46.90183594 -14.94882813 46.90183594 -16.171875 46.1640625 C-17.07679688 45.58785156 -17.07679688 45.58785156 -18 45 C-18 44.01 -18 43.02 -18 42 C-19.65 41.34 -21.3 40.68 -23 40 C-19.86650268 38.95550089 -19.01031744 39.06576355 -16 40 C-16 39.34 -16 38.68 -16 38 C-15.01 37.505 -15.01 37.505 -14 37 C-14.020625 36.236875 -14.04125 35.47375 -14.0625 34.6875 C-14 32 -14 32 -13 29 C-10.78298853 27.41034429 -8.42137527 26.27672514 -6 25 C-6.99 24.67 -7.98 24.34 -9 24 C-8.67 23.01 -8.34 22.02 -8 21 C-5.9375 20.3125 -5.9375 20.3125 -4 20 C-4.66 19.34 -5.32 18.68 -6 18 C-5.34 18 -4.68 18 -4 18 C-4.33 17.01 -4.66 16.02 -5 15 C-4.67 13.88625 -4.34 12.7725 -4 11.625 C-3.02377264 8.08617584 -2.95836388 6.43739919 -4 3 C-2.68 2.67 -1.36 2.34 0 2 C0 1.34 0 0.68 0 0 Z " fill="#70A9D5" transform="translate(230,188)"/>
<path d="M0 0 C0.33 0 0.66 0 1 0 C1 68.97 1 137.94 1 209 C45.55 209 90.1 209 136 209 C136.33 209.66 136.66 210.32 137 211 C91.46 211 45.92 211 -1 211 C-1.64053588 206.51624883 -2.12518605 202.77535197 -2.12698364 198.3565979 C-2.12980347 197.27975739 -2.13262329 196.20291687 -2.13552856 195.09344482 C-2.13350433 193.93032776 -2.1314801 192.76721069 -2.12939453 191.56884766 C-2.13114685 190.32624176 -2.13289917 189.08363586 -2.13470459 187.80337524 C-2.1383518 184.39042195 -2.13748919 180.97752938 -2.1343255 177.56457949 C-2.13176097 173.91946625 -2.13415359 170.2743553 -2.13571167 166.62924194 C-2.13753491 160.44699657 -2.1351369 154.26476309 -2.13037109 148.08251953 C-2.1256431 141.88133957 -2.12544841 135.68018373 -2.13037109 129.47900391 C-2.15566367 96.71647196 -2.06513981 63.95898248 -1.5860877 31.19947386 C-1.55481268 29.0321127 -1.52517257 26.86473415 -1.49585342 24.69734573 C-1.44135906 20.71917497 -1.37760117 16.74118789 -1.31201172 12.76318359 C-1.29569073 11.57730526 -1.27936974 10.39142693 -1.26255417 9.16961288 C-1.24301304 8.09982319 -1.22347191 7.03003349 -1.20333862 5.92782593 C-1.18817137 4.9943804 -1.17300411 4.06093487 -1.15737724 3.09920311 C-1 1 -1 1 0 0 Z " fill="#9BBFD9" transform="translate(228,239)"/>
<path d="M0 0 C1.52353426 0.23297506 3.04378297 0.48744981 4.5625 0.75 C5.83287109 0.95882812 5.83287109 0.95882812 7.12890625 1.171875 C10.77608078 2.22384915 13.78243481 4.04695205 17 6 C18.24660812 6.71718644 19.49531897 7.43073019 20.74609375 8.140625 C25.87304688 11.0703125 25.87304688 11.0703125 31 14 C30.34 14.66 29.68 15.32 29 16 C26.625 15.6875 26.625 15.6875 24 15 C23.236875 14.814375 22.47375 14.62875 21.6875 14.4375 C21.130625 14.293125 20.57375 14.14875 20 14 C20.33 13.34 20.66 12.68 21 12 C20.01 12 19.02 12 18 12 C17.67 11.01 17.34 10.02 17 9 C13.94729537 8.84188612 13.94729537 8.84188612 11 10 C11.33 12.31 11.66 14.62 12 17 C11.34 17 10.68 17 10 17 C10.185625 17.5775 10.37125 18.155 10.5625 18.75 C11.04738567 21.24369772 10.69906422 22.59211213 10 25 C10 25.99 10 26.98 10 28 C9.01 28.66 8.02 29.32 7 30 C6.67 30.33 6.34 30.66 6 31 C6.66 31.33 7.32 31.66 8 32 C7 34 7 34 4.5 35.125 C1.85685071 36.68246584 1.85685071 36.68246584 1.58984375 38.8671875 C1.48849213 40.28611022 1.39211598 41.70539731 1.30078125 43.125 C1 45 1 45 -0.875 47 C-3 48 -3 48 -6 48 C-5.34 48.33 -4.68 48.66 -4 49 C-4 49.66 -4 50.32 -4 51 C-6.875 50.3125 -6.875 50.3125 -10 49 C-11.375 46.375 -11.375 46.375 -12 44 C-10.68 43.01 -9.36 42.02 -8 41 C-8.33 40.34 -8.66 39.68 -9 39 C-9 39.99 -9 40.98 -9 42 C-9.99 41.67 -10.98 41.34 -12 41 C-11.1654738 38.49642139 -10.20628008 36.33214148 -9 34 C-9.99 33.34 -10.98 32.68 -12 32 C-9 31 -9 31 -6 32 C-6.66 30.68 -7.32 29.36 -8 28 C-7.01 27.67 -6.02 27.34 -5 27 C-5 26.34 -5 25.68 -5 25 C-3.68 24.67 -2.36 24.34 -1 24 C-1.515625 23.401875 -2.03125 22.80375 -2.5625 22.1875 C-3.036875 21.465625 -3.51125 20.74375 -4 20 C-3.33333333 18 -2.66666667 16 -2 14 C-2.99 13.01 -3.98 12.02 -5 11 C-1.125 9 -1.125 9 0 9 C0.33 7.68 0.66 6.36 1 5 C2.32 5 3.64 5 5 5 C4.01 4.34 3.02 3.68 2 3 C1.01 3.33 0.02 3.66 -1 4 C-1.73323796 6.01508358 -1.73323796 6.01508358 -2 8 C-2.33 6.35 -2.66 4.7 -3 3 C-2.01 2.67 -1.02 2.34 0 2 C0 1.34 0 0.68 0 0 Z " fill="#7DB1DA" transform="translate(216,181)"/>
<path d="M0 0 C1.4236395 -0.00128164 1.4236395 -0.00128164 2.87603939 -0.00258917 C6.07597827 -0.0042444 9.27586545 0.00127813 12.47579956 0.00672913 C14.76177977 0.00701101 17.04776008 0.00685323 19.33374023 0.00628662 C25.55657171 0.00599871 31.77938407 0.01189441 38.00221109 0.01886058 C44.4991741 0.02509518 50.9961375 0.025698 57.49310303 0.02688599 C68.40335431 0.02964489 79.31359851 0.03589887 90.22384644 0.04481506 C101.46277837 0.05399033 112.70170839 0.06107061 123.94064331 0.06532288 C124.63310084 0.0655856 125.32555836 0.06584832 126.03899945 0.06611901 C129.5127627 0.06742402 132.98652597 0.06868773 136.46028924 0.06993091 C165.29082208 0.08030213 194.12134776 0.09799343 222.95187378 0.12025452 C223.28187378 1.11025452 223.61187378 2.10025452 223.95187378 3.12025452 C194.30310301 3.16584347 164.6543339 3.20125512 135.00553546 3.22238518 C131.50815599 3.2248867 128.01077659 3.22747533 124.51339722 3.2301178 C123.8171086 3.23064242 123.12081997 3.23116704 122.4034317 3.23170756 C111.11745012 3.24041893 99.83148883 3.25619291 88.54551931 3.27456011 C76.9719228 3.29323882 65.3983406 3.30421715 53.82472932 3.30843151 C47.32112725 3.31104557 40.81757126 3.31721633 34.31398392 3.33171463 C28.19918051 3.34523646 22.08444241 3.34948816 15.96962547 3.34646988 C13.71933195 3.34702247 11.46903636 3.35103191 9.21875572 3.35866547 C6.15841011 3.36854229 3.09831466 3.36625013 0.03796387 3.36076355 C-0.8628014 3.36658923 -1.76356667 3.37241492 -2.69162786 3.37841713 C-8.8198838 3.34849694 -8.8198838 3.34849694 -11.04812622 1.12025452 C-7.64127312 -0.58317203 -3.74784888 -0.01217215 0 0 Z " fill="#91B7D4" transform="translate(145.04812622070313,90.87974548339844)"/>
<path d="M0 0 C0.66 0.33 1.32 0.66 2 1 C2.04673937 26.7909324 2.08199836 52.58185844 2.10362434 78.37282467 C2.11393295 90.34825494 2.12798539 102.32365889 2.15087891 114.29907227 C2.17082545 124.73793018 2.18371946 135.17676902 2.18817699 145.61564547 C2.19078221 151.14193461 2.19689708 156.6681692 2.21146011 162.19444084 C2.22506394 167.3990287 2.22921696 172.60353967 2.22621536 177.80814362 C2.22676427 179.71524791 2.23072497 181.62235485 2.23841095 183.52944374 C2.24841606 186.14068912 2.24594869 188.75164723 2.24050903 191.36289978 C2.24633472 192.11098292 2.2521604 192.85906606 2.25816262 193.62981838 C2.22830585 198.96158257 1.32889082 203.84263719 0 209 C-0.66 209 -1.32 209 -2 209 C-2.125 201.25 -2.125 201.25 -1 199 C-0.90667151 196.51133353 -0.87425022 194.05095588 -0.88647461 191.56222534 C-0.88625132 190.39819111 -0.88625132 190.39819111 -0.88602352 189.21064103 C-0.88672103 186.59596663 -0.89457712 183.98136148 -0.90234375 181.36669922 C-0.90426189 179.49763529 -0.90572617 177.62857085 -0.9067688 175.75950623 C-0.90993644 171.72654146 -0.91621521 167.69359748 -0.92483521 163.66064072 C-0.93832896 157.28174748 -0.94424612 150.90286123 -0.94897461 144.5239563 C-0.96103696 129.82317867 -0.98305322 115.12241903 -1.00520325 100.42165375 C-1.02538525 86.96665833 -1.04346201 73.5116691 -1.05341816 60.05666173 C-1.05839724 53.71812754 -1.06825309 47.37962538 -1.08184814 41.04110408 C-1.08932067 37.09105343 -1.09262612 33.14100716 -1.0948143 29.19095039 C-1.09668269 27.36244125 -1.10027642 25.5339329 -1.10574722 23.70543098 C-1.1129953 21.20349253 -1.1139996 18.70162375 -1.11352539 16.19967651 C-1.11712035 15.48117236 -1.12071531 14.76266821 -1.12441921 14.0223912 C-1.11479057 9.25817371 -0.66523205 4.7068133 0 0 Z " fill="#5990BB" transform="translate(440,172)"/>
<path d="M0 0 C1.23275553 -0.00128164 1.23275553 -0.00128164 2.49041522 -0.00258917 C5.23570814 -0.00423222 7.98093954 0.00125814 10.72622681 0.00672913 C12.6975301 0.00701128 14.66883349 0.00685272 16.64013672 0.00628662 C21.98672755 0.00599974 27.33329595 0.01187892 32.67988157 0.01886058 C38.26927292 0.0251122 43.85866478 0.02569935 49.44805908 0.02688599 C60.03015525 0.02999396 70.6122411 0.03820017 81.19433272 0.04823548 C93.24260883 0.05941317 105.29088544 0.06491124 117.33916545 0.06993091 C142.12134918 0.08038321 166.90352374 0.09797234 191.68569946 0.12025452 C191.68569946 0.45025452 191.68569946 0.78025452 191.68569946 1.12025452 C194.32569946 1.45025452 196.96569946 1.78025452 199.68569946 2.12025452 C195.96834946 4.59848785 194.09685601 4.37163166 189.65534973 4.3742218 C188.57457082 4.37890177 188.57457082 4.37890177 187.47195798 4.38367629 C185.04987722 4.39167255 182.6280459 4.38532563 180.20596313 4.37904358 C178.47096612 4.38175336 176.73597025 4.38531423 175.00097656 4.3896637 C170.27405554 4.39880973 165.54722152 4.39522952 160.82029891 4.38890553 C155.84951149 4.38383525 150.87873144 4.38854185 145.90794373 4.39167786 C137.53054477 4.39532365 129.15318097 4.39051192 120.77578735 4.3809967 C111.1668066 4.37020678 101.55791136 4.37356548 91.94893283 4.38464952 C83.65971733 4.39382061 75.37052714 4.39495757 67.08130819 4.38977218 C62.14964713 4.38669331 57.21802573 4.38612589 52.28636742 4.39284515 C29.99777373 4.41917892 7.90240078 4.03550688 -14.31430054 2.12025452 C-14.31430054 1.79025452 -14.31430054 1.46025452 -14.31430054 1.12025452 C-9.51937448 0.16820384 -4.86996228 -0.01864755 0 0 Z " fill="#8AB1CF" transform="translate(168.31430053710938,136.87974548339844)"/>
<path d="M0 0 C7.67201457 4.42416037 11.35966763 10.29349882 14.375 18.5 C14.68080601 21.25225407 14.8528479 23.69941962 14.8125 26.4375 C14.80710205 27.1389917 14.8017041 27.8404834 14.79614258 28.56323242 C14.58311123 35.80882438 12.63589828 40.48028904 7.375 45.5 C7.03666549 40.65053873 7.91006834 38.57661774 10.375 34.5 C12.96827362 27.51374922 12.10470349 21.61839515 10.375 14.5 C9.715 14.5 9.055 14.5 8.375 14.5 C5.97768669 11.30358226 3.99020275 8.49881788 3.375 4.5 C2.735625 4.396875 2.09625 4.29375 1.4375 4.1875 C-1.15052936 3.60651382 -3.40028455 2.85630854 -5.875 1.9375 C-13.7116115 -0.67902152 -19.90007694 0.00852165 -27.45703125 3.27734375 C-30.26109119 4.85873251 -31.85347013 6.84270519 -33.625 9.5 C-34.285 9.5 -34.945 9.5 -35.625 9.5 C-35.81835938 10.10328125 -36.01171875 10.7065625 -36.2109375 11.328125 C-36.47132813 12.12734375 -36.73171875 12.9265625 -37 13.75 C-37.25523437 14.53890625 -37.51046875 15.3278125 -37.7734375 16.140625 C-38.625 18.5 -38.625 18.5 -39.765625 20.4453125 C-42.47142755 26.91464041 -38.20732721 36.31523372 -35.72265625 42.44140625 C-33.71635867 46.20410669 -31.23544131 47.88192135 -27.4375 49.6875 C-26.72207031 50.03167969 -26.00664062 50.37585938 -25.26953125 50.73046875 C-24.45548828 51.11138672 -24.45548828 51.11138672 -23.625 51.5 C-23.625 52.16 -23.625 52.82 -23.625 53.5 C-26 55.1875 -26 55.1875 -28.625 56.5 C-29.285 56.17 -29.945 55.84 -30.625 55.5 C-29.635 54.18 -28.645 52.86 -27.625 51.5 C-28.36363281 51.43167969 -29.10226562 51.36335938 -29.86328125 51.29296875 C-33.44761209 50.26380445 -34.55058083 48.73943216 -36.8125 45.8125 C-37.48667969 44.96300781 -38.16085937 44.11351562 -38.85546875 43.23828125 C-43.71041268 35.72544307 -44.41095807 27.03858639 -42.625 18.4375 C-40.52045154 10.97067739 -36.5718451 5.79853917 -30.5 1.0625 C-20.99204535 -4.10486666 -9.87037406 -4.54605463 0 0 Z " fill="#91B8D6" transform="translate(356.625,282.5)"/>
<path d="M0 0 C0.66 0 1.32 0 2 0 C1.99476318 1.16982422 1.98952637 2.33964844 1.98413086 3.54492188 C1.96593737 7.91340358 1.95451583 12.28188198 1.94506836 16.65039062 C1.94006081 18.53581303 1.93325285 20.4212316 1.92456055 22.30664062 C1.91233747 25.02735344 1.90673576 27.7480146 1.90234375 30.46875 C1.89718246 31.30241089 1.89202118 32.13607178 1.88670349 32.99499512 C1.88622286 38.08707816 2.26870447 42.95937477 3 48 C3.33773437 47.31292969 3.67546875 46.62585938 4.0234375 45.91796875 C4.46945313 45.01691406 4.91546875 44.11585938 5.375 43.1875 C5.81585938 42.29417969 6.25671875 41.40085937 6.7109375 40.48046875 C8 38 8 38 10 35 C10.66 35 11.32 35 12 35 C12.226875 34.443125 12.45375 33.88625 12.6875 33.3125 C15.84698492 27.74578847 20.51601245 24.90328752 26 22 C25.00305041 25.35337589 24.41434947 26.72713571 21.4375 28.6875 C20.2309375 29.3371875 20.2309375 29.3371875 19 30 C18.67 30.66 18.34 31.32 18 32 C17.34 32 16.68 32 16 32 C15.690625 32.61875 15.38125 33.2375 15.0625 33.875 C14.375 35.25 13.6875 36.625 13 38 C12.34 38 11.68 38 11 38 C10.82984375 38.556875 10.6596875 39.11375 10.484375 39.6875 C8.76684063 45.09590609 6.64657745 49.98062896 4 55 C2.68 55 1.36 55 0 55 C0 36.85 0 18.7 0 0 Z " fill="#A1C1DA" transform="translate(108,318)"/>
<path d="M0 0 C1.47871399 1.06562805 1.47871399 1.06562805 3 3 C3.36076355 6.09416199 3.36076355 6.09416199 3.34057617 9.94995117 C3.34101425 10.65264633 3.34145233 11.35534149 3.34190369 12.07933044 C3.33981447 14.40082636 3.31647819 16.72159909 3.29296875 19.04296875 C3.28737324 20.65293483 3.28310293 22.26290602 3.28010559 23.87287903 C3.26865318 28.10954907 3.23918279 32.3459104 3.20599365 36.5824585 C3.17530119 40.9058413 3.16160203 45.22927401 3.14648438 49.55273438 C3.1143133 58.0352979 3.06311238 66.51761054 3 75 C0.05603027 72.30450439 0.05603027 72.30450439 -0.44824219 69.56396484 C-0.48079102 68.62246582 -0.51333984 67.6809668 -0.546875 66.7109375 C-0.58683594 65.68742187 -0.62679687 64.66390625 -0.66796875 63.609375 C-0.69503906 62.54203125 -0.72210938 61.4746875 -0.75 60.375 C-0.79253906 59.29992187 -0.83507812 58.22484375 -0.87890625 57.1171875 C-1.07516463 51.36027513 -1.07516463 51.36027513 -1 49 C-0.505 48.505 -0.505 48.505 0 48 C0.09311889 46.49581261 0.11746028 44.98728644 0.11352539 43.48022461 C0.11344986 42.51930405 0.11337433 41.55838348 0.11329651 40.56834412 C0.10813522 39.523564 0.10297394 38.47878387 0.09765625 37.40234375 C0.09553383 35.80635094 0.09553383 35.80635094 0.09336853 34.17811584 C0.08775064 30.76454917 0.07519511 27.351047 0.0625 23.9375 C0.05748731 21.62955824 0.052924 19.32161545 0.04882812 17.01367188 C0.0377754 11.34242574 0.02101987 5.67121747 0 0 Z " fill="#99BDD9" transform="translate(209,374)"/>
<path d="M0 0 C0.721875 0.185625 1.44375 0.37125 2.1875 0.5625 C5.12826973 1.01995307 7.14103058 0.73516357 10 0 C10.495 0.99 10.495 0.99 11 2 C22.88 2 34.76 2 47 2 C47.495 3.485 47.495 3.485 48 5 C38.93274486 5.04655098 29.86553151 5.08198402 20.79818249 5.10362434 C16.58684728 5.11401597 12.37559445 5.12808966 8.16430664 5.15087891 C4.09238703 5.17277349 0.02054614 5.18460328 -4.05142784 5.18975449 C-5.5969841 5.19342066 -7.14253655 5.20057884 -8.68805885 5.21146011 C-17.31435572 5.26972154 -25.55107932 4.99641183 -34 3 C-33.67 2.34 -33.34 1.68 -33 1 C-31.948125 1.16371094 -30.89625 1.32742188 -29.8125 1.49609375 C-23.88719143 2.23675732 -17.96150311 2.10688691 -12 2.0625 C-10.84371094 2.05798828 -9.68742187 2.05347656 -8.49609375 2.04882812 C-5.66400775 2.03712529 -2.83203189 2.02072996 0 2 C0 1.34 0 0.68 0 0 Z " fill="#82B1D6" transform="translate(163,444)"/>
<path d="M0 0 C-1.26742274 3.54878366 -3.10647852 4.79581902 -6.22265625 6.75390625 C-12.36336135 11.05914785 -16.65611824 16.40654105 -19.89453125 23.1171875 C-21 25 -21 25 -24 27 C-24.65772428 30.02934491 -24.65772428 30.02934491 -25 33 C-25.495 33.495 -25.495 33.495 -26 34 C-26.08767112 36.07262076 -26.10695873 38.14820294 -26.09765625 40.22265625 C-26.09443359 41.48271484 -26.09121094 42.74277344 -26.08789062 44.04101562 C-26.07953403 45.38151109 -26.07106907 46.72200588 -26.0625 48.0625 C-26.0574866 49.40689942 -26.05292342 50.7513006 -26.04882812 52.09570312 C-26.03699488 55.39717941 -26.02050971 58.69856803 -26 62 C-26.99 62 -27.98 62 -29 62 C-29.86601626 29.30455542 -29.86601626 29.30455542 -20 17 C-19.40058594 16.16726563 -18.80117188 15.33453125 -18.18359375 14.4765625 C-14.23640849 9.16580415 -7.29435859 0 0 0 Z " fill="#93B9D6" transform="translate(319,339)"/>
<path d="M0 0 C5.81947625 3.82422725 9.04925109 9.41640797 10.8125 16.0625 C11.41824857 25.55256092 11.00526128 34.12153795 5 42 C2.81839205 44.21089128 0.5808901 46.2645739 -2 48 C-2.66 48 -3.32 48 -4 48 C-3.75 46.125 -3.75 46.125 -3 44 C-2.360625 43.690625 -1.72125 43.38125 -1.0625 43.0625 C1.78029664 41.598029 1.94613387 39.95082517 3 37 C3.7734375 35.9790625 3.7734375 35.9790625 4.5625 34.9375 C8.10762546 30.15928742 7.43079765 23.66960483 7 18 C5.72354691 12.05886171 3.06887058 7.18533305 0 2 C0 1.34 0 0.68 0 0 Z " fill="#92B9D8" transform="translate(178,286)"/>
<path d="M0 0 C0.64324219 0.35263916 1.28648437 0.70527832 1.94921875 1.06860352 C7.07706084 3.87346365 12.21584717 6.6554562 17.375 9.40234375 C18.46296875 9.98306641 19.5509375 10.56378906 20.671875 11.16210938 C22.88900491 12.34483889 25.10775673 13.52453306 27.328125 14.70117188 C33.62447216 18.0694192 39.7152454 21.61654083 45.69067383 25.52783203 C48.38507902 27.24548329 51.0995926 28.66738038 54 30 C54 30.66 54 31.32 54 32 C52.02 32.495 52.02 32.495 50 33 C50 32.34 50 31.68 50 31 C49.15179688 30.5875 48.30359375 30.175 47.4296875 29.75 C38.75640111 25.48007439 30.34310438 20.88160362 22 16 C22 15.34 22 14.68 22 14 C16.52225234 12.41678933 16.52225234 12.41678933 11 11 C11 10.01 11 9.02 11 8 C10.071875 7.7834375 10.071875 7.7834375 9.125 7.5625 C7 7 7 7 5 6 C5 5.34 5 4.68 5 4 C2.525 3.01 2.525 3.01 0 2 C0 1.34 0 0.68 0 0 Z " fill="#92B9D7" transform="translate(161,147)"/>
<path d="M0 0 C8.2487909 2.27140619 14.9253631 6.2835754 22 11 C22 11.66 22 12.32 22 13 C22.99 13.33 23.98 13.66 25 14 C29.39972432 18.71018874 33.71888806 23.91703483 36 30 C35.67 30.66 35.34 31.32 35 32 C34.01 31.34 33.02 30.68 32 30 C31.8125 27.375 31.8125 27.375 32 25 C31.08927734 24.85884766 31.08927734 24.85884766 30.16015625 24.71484375 C27.49473744 23.83279738 26.91326084 22.90520945 25.4375 20.5625 C23.69856701 17.83152 22.82103981 16.8806932 20 15 C20 14.34 20 13.68 20 13 C19.071875 12.731875 18.14375 12.46375 17.1875 12.1875 C14 11 14 11 12.6875 9.59375 C10.33929928 7.37600487 7.80135798 6.50161554 4.8125 5.3125 C3.72582031 4.87550781 2.63914063 4.43851562 1.51953125 3.98828125 C0.68808594 3.66214844 -0.14335937 3.33601563 -1 3 C-0.67 2.01 -0.34 1.02 0 0 Z " fill="#8EB6D6" transform="translate(172,334)"/>
<path d="M0 0 C-2.58179691 3.01359569 -5.50698024 4.36998942 -9.0625 6.0625 C-15.90974078 9.3710175 -22.53111671 13.02701827 -29.13305664 16.79907227 C-29.8677417 17.21471436 -30.60242676 17.63035645 -31.359375 18.05859375 C-32.01389648 18.43298584 -32.66841797 18.80737793 -33.34277344 19.19311523 C-35 20 -35 20 -37 20 C-37 19.34 -37 18.68 -37 18 C-37.66 17.67 -38.32 17.34 -39 17 C-38.31292969 16.66226563 -37.62585938 16.32453125 -36.91796875 15.9765625 C-36.01691406 15.53054687 -35.11585938 15.08453125 -34.1875 14.625 C-33.29417969 14.18414062 -32.40085937 13.74328125 -31.48046875 13.2890625 C-28.85443619 11.98133095 -28.85443619 11.98133095 -26 10 C-25.34 10 -24.68 10 -24 10 C-23.67 9.34 -23.34 8.68 -23 8 C-20.45740679 6.86995857 -17.86443242 5.9507027 -15.25 5 C-12.84296517 4.21568639 -12.84296517 4.21568639 -12 2 C-10.35 2 -8.7 2 -7 2 C-7 1.34 -7 0.68 -7 0 C-4.3333581 -1.33332095 -2.83319697 -0.67102033 0 0 Z " fill="#7AA7C9" transform="translate(334,212)"/>
<path d="M0 0 C0.33 0 0.66 0 1 0 C1 15.84 1 31.68 1 48 C5.95 48 10.9 48 16 48 C16 48.66 16 49.32 16 50 C13.56065775 50.13501894 11.12875896 50.23403897 8.6875 50.3125 C7.99720703 50.35439453 7.30691406 50.39628906 6.59570312 50.43945312 C4.57421875 50.48828125 4.57421875 50.48828125 1 50 C-1.04296875 47.79296875 -1.04296875 47.79296875 -2 45 C-1.78404175 43.95404663 -1.78404175 43.95404663 -1.5637207 42.88696289 C-0.78749472 38.91170425 -0.89682483 35.05520248 -0.9375 31.015625 C-0.94128662 30.15942566 -0.94507324 29.30322632 -0.94897461 28.42108154 C-0.96115555 25.69733568 -0.97979952 22.97369747 -1 20.25 C-1.02648609 16.65104481 -1.04651156 13.05214035 -1.0625 9.453125 C-1.07079834 8.62089417 -1.07909668 7.78866333 -1.08764648 6.93121338 C-1.09618873 4.95394486 -1.05340626 2.9765656 -1 1 C-0.67 0.67 -0.34 0.34 0 0 Z " fill="#5D92BA" transform="translate(275,353)"/>
<path d="M0 0 C0.8353125 0.37125 0.8353125 0.37125 1.6875 0.75 C-0.2925 1.74 -0.2925 1.74 -2.3125 2.75 C-2.3125 3.41 -2.3125 4.07 -2.3125 4.75 C-3.3025 5.245 -3.3025 5.245 -4.3125 5.75 C-2.29532832 8.05320956 -2.29532832 8.05320956 1.375 9.0625 C5.788201 10.64382979 9.04970738 12.7942935 12.6875 15.75 C12.6875 16.41 12.6875 17.07 12.6875 17.75 C13.326875 18.03875 13.96625 18.3275 14.625 18.625 C16.6875 19.75 16.6875 19.75 17.6875 21.75 C11.76742681 21.4017604 9.6164481 20.09252158 5.6875 15.75 C1.8854622 13.04855209 -1.84489653 11.99100096 -6.3125 10.75 C-7.3025 10.09 -8.2925 9.43 -9.3125 8.75 C-7.925165 4.2096309 -5.3700603 -0.58054706 0 0 Z " fill="#9BBFDB" transform="translate(362.3125,328.25)"/>
<path d="M0 0 C4.46206429 0.57655887 7.82932288 2.40862315 11.625 4.6875 C12.85994905 5.41529926 14.0956366 6.14184676 15.33203125 6.8671875 C16.25169678 7.40811035 16.25169678 7.40811035 17.18994141 7.95996094 C20.72184363 9.98935175 24.35943622 11.82692444 27.98828125 13.67578125 C30 15 30 15 31 18 C31.66 18 32.32 18 33 18 C32.67 18.66 32.34 19.32 32 20 C28.7 18.35 25.4 16.7 22 15 C22 14.34 22 13.68 22 13 C21.29875 12.9175 20.5975 12.835 19.875 12.75 C17.04291753 12.01119588 15.25087791 10.93713925 12.890625 9.25390625 C8.78252089 6.52931654 4.34548776 4.31965539 0 2 C0 1.34 0 0.68 0 0 Z " fill="#8FB6D5" transform="translate(139,190)"/>
<path d="M0 0 C0 0.66 0 1.32 0 2 C-2.64738916 3.4606285 -3.89448334 4 -7 4 C-7 4.99 -7 5.98 -7 7 C-9.28929053 8.17154293 -11.58118362 9.33738074 -13.875 10.5 C-14.52597656 10.83386719 -15.17695313 11.16773438 -15.84765625 11.51171875 C-20.7734375 14 -20.7734375 14 -23 14 C-23 14.66 -23 15.32 -23 16 C-25.90600261 17.25664978 -27.79604584 18 -31 18 C-31.33 18.66 -31.66 19.32 -32 20 C-32.33 19.01 -32.66 18.02 -33 17 C-26.27353653 12.76883749 -19.34950409 9.11078764 -12.22265625 5.61328125 C-9.67148318 4.33614855 -7.20427481 3.0125204 -4.75 1.5625 C-2 0 -2 0 0 0 Z " fill="#83ADCC" transform="translate(332,158)"/>
<path d="M0 0 C0.33 0 0.66 0 1 0 C1.22356432 5.86527577 0.60200806 10.65584079 -1.125 16.25 C-1.34438232 16.9814624 -1.56376465 17.7129248 -1.78979492 18.46655273 C-3.84242088 25.02763781 -6.63491845 30.99835971 -10 37 C-11.09658936 33.71023192 -10.79953138 32.28696233 -10 29 C-9.67 29 -9.34 29 -9 29 C-8.00819484 25.643121 -7.07077742 22.31571499 -6.3046875 18.8984375 C-6.05976563 17.81820313 -5.81484375 16.73796875 -5.5625 15.625 C-5.33691406 14.58601563 -5.11132812 13.54703125 -4.87890625 12.4765625 C-4.58886719 11.65929687 -4.29882812 10.84203125 -4 10 C-3.01 9.67 -2.02 9.34 -1 9 C-0.67 6.03 -0.34 3.06 0 0 Z " fill="#84ADCC" transform="translate(441,372)"/>
<path d="M0 0 C-3.64050392 3.2296334 -7.65059086 4.39885286 -12.1875 5.875 C-17.9289873 7.80588423 -23.18991617 9.85735726 -28.3359375 13.1171875 C-30 14 -30 14 -33 14 C-33 13.34 -33 12.68 -33 12 C-27.39799612 7.32697163 -20.50626175 4.9158393 -13.6875 2.625 C-12.91100098 2.36235352 -12.13450195 2.09970703 -11.33447266 1.82910156 C-7.45511383 0.58039889 -4.12846405 -0.34609878 0 0 Z " fill="#90B7D5" transform="translate(131,93)"/>
<path d="M0 0 C0.66 0.99 1.32 1.98 2 3 C1.01 3.495 1.01 3.495 0 4 C-0.37366113 5.99285937 -0.70740515 7.99363529 -1 10 C-1.33 10.33 -1.66 10.66 -2 11 C-2.08767112 13.07262076 -2.10695873 15.14820294 -2.09765625 17.22265625 C-2.09443359 18.48271484 -2.09121094 19.74277344 -2.08789062 21.04101562 C-2.07953403 22.38151109 -2.07106907 23.72200588 -2.0625 25.0625 C-2.0574866 26.40689942 -2.05292342 27.7513006 -2.04882812 29.09570312 C-2.03699488 32.39717941 -2.02050971 35.69856803 -2 39 C-2.99 39 -3.98 39 -5 39 C-5.80246914 8.7037037 -5.80246914 8.7037037 0 0 Z " fill="#A2C2DA" transform="translate(295,362)"/>
<path d="M0 0 C1.47722784 0.54693211 2.95633953 1.08880929 4.4375 1.625 C8 3 8 3 9 4 C10.84599688 4.39454223 12.70225822 4.74176866 14.5625 5.0625 C16.08037109 5.32740234 16.08037109 5.32740234 17.62890625 5.59765625 C18.41136719 5.73042969 19.19382813 5.86320312 20 6 C20 6.33 20 6.66 20 7 C7.84998028 7.13874411 -1.89595488 3.53395446 -13 -1 C-13 -1.33 -13 -1.66 -13 -2 C-7.94792936 -3.73664928 -4.65049064 -1.95899789 0 0 Z " fill="#96BBD7" transform="translate(120,442)"/>
<path d="M0 0 C0.99 0 1.98 0 3 0 C3 4.10560643 1.3379726 5.42771384 -1.25 8.5625 C-2.03890625 9.53316406 -2.8278125 10.50382812 -3.640625 11.50390625 C-5.75135735 13.73694925 -7.17747448 14.90594768 -10 16 C-10 16.66 -10 17.32 -10 18 C-10.66 18 -11.32 18 -12 18 C-12.33 16.35 -12.66 14.7 -13 13 C-11.6696875 12.443125 -11.6696875 12.443125 -10.3125 11.875 C-5.38114236 9.08366549 -2.23297385 5.2779382 0 0 Z " fill="#77A5C8" transform="translate(425,410)"/>
<path d="M0 0 C1.65 0 3.3 0 5 0 C5.33 0.66 5.66 1.32 6 2 C2.54515902 3.83997197 -0.9144248 5.67083882 -4.375 7.5 C-5.35984375 8.02464844 -6.3446875 8.54929688 -7.359375 9.08984375 C-8.30039062 9.58613281 -9.24140625 10.08242187 -10.2109375 10.59375 C-11.51490479 11.28500977 -11.51490479 11.28500977 -12.84521484 11.99023438 C-15 13 -15 13 -17 13 C-17 12.34 -17 11.68 -17 11 C-16.01 11 -15.02 11 -14 11 C-14 10.01 -14 9.02 -14 8 C-9.15939723 4.93757784 -5.70709064 3.46588495 0 3 C0 2.01 0 1.02 0 0 Z " fill="#7BA7C8" transform="translate(373,187)"/>
<path d="M0 0 C4.47775806 6.71663709 6.47869977 16.99762478 5 25 C4.03124033 26.35620149 3.0338386 27.69272974 2 29 C1.66405814 24.91687687 1.33169789 20.83346991 1 16.75 C0.85691406 15.01169922 0.85691406 15.01169922 0.7109375 13.23828125 C0.62070312 12.12324219 0.53046875 11.00820312 0.4375 9.859375 C0.35371094 8.83295898 0.26992188 7.80654297 0.18359375 6.74902344 C0.03362755 4.50351891 0 2.25050671 0 0 Z " fill="#70A1C6" transform="translate(437,148)"/>
<path d="M0 0 C0 0.99 0 1.98 0 3 C-4.98501565 6.94187354 -10.74492416 9.87408635 -17 11 C-19.1953125 10.53515625 -19.1953125 10.53515625 -21 10 C-17.87852455 8.32666842 -14.75226502 6.66248284 -11.625 5 C-10.73554688 4.52304688 -9.84609375 4.04609375 -8.9296875 3.5546875 C-8.07890625 3.10351562 -7.228125 2.65234375 -6.3515625 2.1875 C-5.56604004 1.76855469 -4.78051758 1.34960938 -3.97119141 0.91796875 C-2 0 -2 0 0 0 Z " fill="#7AA7C8" transform="translate(357,145)"/>
<path d="M0 0 C0.99 0 1.98 0 3 0 C4.32670463 2.91875018 5.03680999 5.2944799 5.4375 8.5 C6.01349829 12.08398938 6.86696487 14.09907222 9 17 C9.66 17.33 10.32 17.66 11 18 C11.40729228 20.32156597 11.74438677 22.6568787 12 25 C8.82049871 21.28707244 6.46835641 17.42587822 4.3125 13.0625 C3.85133789 12.17014648 3.85133789 12.17014648 3.38085938 11.25976562 C1.51228128 7.51852065 0.4752801 4.15077952 0 0 Z " fill="#9ABDD8" transform="translate(64,389)"/>
<path d="M0 0 C0.66 0.33 1.32 0.66 2 1 C1.319375 1.66 0.63875 2.32 -0.0625 3 C-6.96239085 9.8203673 -6.96239085 9.8203673 -12 18 C-12.66 17.67 -13.32 17.34 -14 17 C-12.34116054 10.1987582 -8.3760733 5.41926242 -2.625 1.5625 C-1.325625 0.7890625 -1.325625 0.7890625 0 0 Z " fill="#95BAD7" transform="translate(147,282)"/>
<path d="M0 0 C2.48046875 0.6796875 2.48046875 0.6796875 5.1875 1.875 C6.08855469 2.26429688 6.98960937 2.65359375 7.91796875 3.0546875 C8.94857422 3.52261719 8.94857422 3.52261719 10 4 C10 4.66 10 5.32 10 6 C12.475 6.99 12.475 6.99 15 8 C13.453125 9.2421875 13.453125 9.2421875 11 10 C8.37987917 8.82035284 6.16046994 7.63889271 3.75 6.125 C3.1003125 5.73441406 2.450625 5.34382812 1.78125 4.94140625 C0.17879948 3.97522285 -1.41180293 2.98943828 -3 2 C-2.01 1.34 -1.02 0.68 0 0 Z " fill="#93BAD9" transform="translate(179,211)"/>
<path d="M0 0 C-1.87358447 1.10656688 -3.74893639 2.21014146 -5.625 3.3125 C-6.66914063 3.92738281 -7.71328125 4.54226562 -8.7890625 5.17578125 C-17.28051392 10 -17.28051392 10 -20 10 C-20.33 8.68 -20.66 7.36 -21 6 C-20.443125 5.896875 -19.88625 5.79375 -19.3125 5.6875 C-16.88174267 5.08597135 -16.88174267 5.08597135 -14.625 3.4375 C-11.52422769 1.73945802 -9.48221436 1.75705481 -6 2 C-6 1.34 -6 0.68 -6 0 C-3 -1 -3 -1 0 0 Z " fill="#7BA7C8" transform="translate(354,202)"/>
<path d="M0 0 C2.23310552 1.07575855 4.46124501 2.16022483 6.6875 3.25 C7.31333984 3.55035156 7.93917969 3.85070312 8.58398438 4.16015625 C12.45438826 6.06496235 15.7119061 8.15828214 19 11 C15.33333333 11 11.66666667 11 8 11 C8.33 10.01 8.66 9.02 9 8 C8.01 8 7.02 8 6 8 C5.67 7.01 5.34 6.02 5 5 C1.99992729 3.29144978 1.99992729 3.29144978 -1 2 C-0.67 1.34 -0.34 0.68 0 0 Z " fill="#80AED1" transform="translate(228,185)"/>
<path d="M0 0 C0.33 0.66 0.66 1.32 1 2 C-0.375 4 -0.375 4 -2 6 C-2.66 6 -3.32 6 -4 6 C-4 6.66 -4 7.32 -4 8 C-5.8125 10.125 -5.8125 10.125 -8 12 C-8.99 12 -9.98 12 -11 12 C-11 12.66 -11 13.32 -11 14 C-13 15.625 -13 15.625 -15 17 C-15.66 16.67 -16.32 16.34 -17 16 C-12.10824898 9.73244401 -6.39023997 4.71084505 0 0 Z " fill="#95BAD6" transform="translate(95,107)"/>
<path d="M0 0 C0.66 0.33 1.32 0.66 2 1 C2.05449838 2.72880982 2.09301688 4.45812712 2.125 6.1875 C2.14820312 7.15042969 2.17140625 8.11335937 2.1953125 9.10546875 C1.9913544 12.12812778 1.26874632 14.26769985 0 17 C-0.99 16.67 -1.98 16.34 -3 16 C-2.40984815 10.49191603 -1.43336231 5.35121931 0 0 Z " fill="#92BAD9" transform="translate(63,152)"/>
<path d="M0 0 C8.58 0 17.16 0 26 0 C26 0.66 26 1.32 26 2 C24.75863281 1.98839844 23.51726562 1.97679687 22.23828125 1.96484375 C20.59635568 1.95546132 18.95442847 1.9463616 17.3125 1.9375 C16.49587891 1.92912109 15.67925781 1.92074219 14.83789062 1.91210938 C11.43102309 1.89831639 8.4334406 1.89646561 5.10546875 2.69140625 C4.41066406 2.79324219 3.71585938 2.89507812 3 3 C2.01 2.01 1.02 1.02 0 0 Z " fill="#A8C5DB" transform="translate(147,139)"/>
<path d="M0 0 C0.33 0.66 0.66 1.32 1 2 C2.32 2 3.64 2 5 2 C5 2.99 5 3.98 5 5 C-0.5522888 7.8352113 -4.80112515 8.37952295 -11 8 C-8.80516417 6.53677611 -6.68038 5.25569634 -4.375 4 C-0.97179804 2.3948274 -0.97179804 2.3948274 0 0 Z " fill="#6C9EC4" transform="translate(391,436)"/>
<path d="M0 0 C5.6249793 4.38748386 9.30620592 8.91132843 13 15 C9.26199439 14.11050291 7.38273623 13.4575887 4.8828125 10.46875 C4.30273438 9.4890625 3.72265625 8.509375 3.125 7.5 C2.52945312 6.5203125 1.93390625 5.540625 1.3203125 4.53125 C0 2 0 2 0 0 Z " fill="#7AA7C8" transform="translate(415,114)"/>
<path d="M0 0 C3.63 0 7.26 0 11 0 C11 0.99 11 1.98 11 3 C7.3077094 6.6922906 3.93871381 7.83794969 -1 9 C-1 8.01 -1 7.02 -1 6 C1.87501211 3.92360237 4.51375944 2.6456001 8 2 C5.36 1.67 2.72 1.34 0 1 C0 0.67 0 0.34 0 0 Z " fill="#6A9BC0" transform="translate(358,138)"/>
<path d="M0 0 C0.8353125 0.37125 0.8353125 0.37125 1.6875 0.75 C-0.2925 1.74 -0.2925 1.74 -2.3125 2.75 C-2.3125 3.41 -2.3125 4.07 -2.3125 4.75 C-4.2925 5.74 -4.2925 5.74 -6.3125 6.75 C-5.6525 7.08 -4.9925 7.41 -4.3125 7.75 C-4.3125 8.74 -4.3125 9.73 -4.3125 10.75 C-6.7875 9.76 -6.7875 9.76 -9.3125 8.75 C-7.925165 4.2096309 -5.3700603 -0.58054706 0 0 Z " fill="#90B8D6" transform="translate(362.3125,328.25)"/>
<path d="M0 0 C3.54243452 1.36591169 6.92627929 2.90931484 10.3125 4.625 C11.63701172 5.29402344 11.63701172 5.29402344 12.98828125 5.9765625 C13.65214844 6.31429687 14.31601563 6.65203125 15 7 C15 7.99 15 8.98 15 10 C11.34426939 8.62992438 8.04532353 6.98982135 4.6875 5 C3.80449219 4.484375 2.92148438 3.96875 2.01171875 3.4375 C1.34785156 2.963125 0.68398437 2.48875 0 2 C0 1.34 0 0.68 0 0 Z " fill="#8EB6D4" transform="translate(145,139)"/>
<path d="M0 0 C2.97 0.495 2.97 0.495 6 1 C6 2.32 6 3.64 6 5 C7.2065625 5.185625 7.2065625 5.185625 8.4375 5.375 C9.7059375 5.684375 9.7059375 5.684375 11 6 C11.33 6.66 11.66 7.32 12 8 C12.99 8.33 13.98 8.66 15 9 C14.67 9.99 14.34 10.98 14 12 C8.47924007 8.9886764 3.50079023 5.25118534 0 0 Z " fill="#9EC0DA" transform="translate(86,425)"/>
<path d="M0 0 C0.66 0.99 1.32 1.98 2 3 C1.01 3 0.02 3 -1 3 C-1 3.66 -1 4.32 -1 5 C-5.455 6.485 -5.455 6.485 -10 8 C-7.95874182 3.91748364 -7.69699058 3.47606026 -3.875 1.75 C-3.15054687 1.41484375 -2.42609375 1.0796875 -1.6796875 0.734375 C-1.12539063 0.49203125 -0.57109375 0.2496875 0 0 Z " fill="#6E9FC4" transform="translate(269,191)"/>
<path d="M0 0 C0.88336837 2.4667645 1.1312406 3.63859372 0.22265625 6.140625 C-0.16019531 6.83671875 -0.54304688 7.5328125 -0.9375 8.25 C-1.31777344 8.95640625 -1.69804688 9.6628125 -2.08984375 10.390625 C-2.39019531 10.92171875 -2.69054687 11.4528125 -3 12 C-4.32 12 -5.64 12 -7 12 C-6.67 11.01 -6.34 10.02 -6 9 C-5.67 9.33 -5.34 9.66 -5 10 C-4.34 8.02 -3.68 6.04 -3 4 C-2.34 4 -1.68 4 -1 4 C-0.67 2.68 -0.34 1.36 0 0 Z " fill="#8BB4D5" transform="translate(115,361)"/>
<path d="M0 0 C0 0.66 0 1.32 0 2 C-0.99 2 -1.98 2 -3 2 C-3 2.99 -3 3.98 -3 5 C-5.64 5.33 -8.28 5.66 -11 6 C-11 6.66 -11 7.32 -11 8 C-11.99 7.67 -12.98 7.34 -14 7 C-12.5438656 4.08773121 -10.50039336 3.68157936 -7.5625 2.375 C-6.07943359 1.70597656 -6.07943359 1.70597656 -4.56640625 1.0234375 C-2 0 -2 0 0 0 Z " fill="#6198C2" transform="translate(359,196)"/>
<path d="M0 0 C3.09592835 3.5087188 4.74194623 6.49197399 6 11 C4.84481082 10.09515208 3.70114594 9.1755794 2.5625 8.25 C1.60537109 7.48429687 1.60537109 7.48429687 0.62890625 6.703125 C-1.18810554 4.80332371 -1.60423197 3.56413092 -2 1 C-1.34 0.67 -0.68 0.34 0 0 Z " fill="#99BED9" transform="translate(80,414)"/>
<path d="M0 0 C4.29 0 8.58 0 13 0 C13 0.66 13 1.32 13 2 C8.38 2.33 3.76 2.66 -1 3 C-0.67 2.01 -0.34 1.02 0 0 Z " fill="#8DB5D4" transform="translate(152,280)"/>
<path d="M0 0 C0.33 0 0.66 0 1 0 C0.9278125 0.88042969 0.855625 1.76085937 0.78125 2.66796875 C0.6884375 3.82941406 0.595625 4.99085938 0.5 6.1875 C0.4071875 7.33605469 0.314375 8.48460937 0.21875 9.66796875 C0.0354038 12.46072426 -0.04213637 15.20319812 0 18 C-0.66 18 -1.32 18 -2 18 C-2.054138 15.75026553 -2.09285491 13.50015617 -2.125 11.25 C-2.14820313 9.99703125 -2.17140625 8.7440625 -2.1953125 7.453125 C-2.01537302 4.27179508 -1.68998582 2.63478104 0 0 Z " fill="#84B2D7" transform="translate(294,369)"/>
<path d="M0 0 C1.41965142 0.42771549 2.8356224 0.86765543 4.25 1.3125 C5.43335938 1.67794922 5.43335938 1.67794922 6.640625 2.05078125 C9.12697232 3.05108323 10.9342834 4.30857609 13 6 C11.41590006 5.88512252 9.83271037 5.75765492 8.25 5.625 C7.36828125 5.55539062 6.4865625 5.48578125 5.578125 5.4140625 C3.00933618 5.00149945 1.24158985 4.28839043 -1 3 C-0.67 2.01 -0.34 1.02 0 0 Z " fill="#9EC0D9" transform="translate(172,334)"/>
<path d="M0 0 C3.10190545 4.65285818 4.33846504 9.41532676 4 15 C3.01 15 2.02 15 1 15 C0.67 10.05 0.34 5.1 0 0 Z " fill="#85ADCC" transform="translate(437,148)"/>
<path d="M0 0 C0.33 0.99 0.66 1.98 1 3 C0.34 3.66 -0.32 4.32 -1 5 C-1.71927295 7.31765729 -2.3909893 9.65095874 -3 12 C-4.32 12.33 -5.64 12.66 -7 13 C-5.08797357 8.21993392 -2.97233765 4.20227047 0 0 Z " fill="#9ABDD9" transform="translate(74,129)"/>
<path d="M0 0 C3.50015029 2.33343353 4.40382422 4.16917814 6 8 C5.67 8.66 5.34 9.32 5 10 C3.02 8.35 1.04 6.7 -1 5 C-0.67 3.35 -0.34 1.7 0 0 Z " fill="#81ACCC" transform="translate(428,130)"/>
<path d="M0 0 C0.33 0 0.66 0 1 0 C1.33 5.28 1.66 10.56 2 16 C1.01 16.33 0.02 16.66 -1 17 C-0.67 11.39 -0.34 5.78 0 0 Z " fill="#699CC3" transform="translate(274,261)"/>
<path d="M0 0 C0.721875 0.144375 1.44375 0.28875 2.1875 0.4375 C4.03480707 0.80696141 5.88950639 1.14151238 7.75 1.4375 C8.4925 1.623125 9.235 1.80875 10 2 C10.33 2.66 10.66 3.32 11 4 C13.01669827 5.13350534 13.01669827 5.13350534 15 6 C15 6.66 15 7.32 15 8 C11.45756548 6.63408831 8.07372071 5.09068516 4.6875 3.375 C3.80449219 2.92898437 2.92148438 2.48296875 2.01171875 2.0234375 C1.34785156 1.68570313 0.68398437 1.34796875 0 1 C0 0.67 0 0.34 0 0 Z " fill="#9EBFD8" transform="translate(111,176)"/>
<path d="M0 0 C0.66 0 1.32 0 2 0 C2.66 2.31 3.32 4.62 4 7 C4.66 7 5.32 7 6 7 C6.33 8.32 6.66 9.64 7 11 C3.45756544 9.13556076 1.29293437 7.87880311 0 4 C0 2.68 0 1.36 0 0 Z " fill="#8CB5D5" transform="translate(133,317)"/>
<path d="M0 0 C3.7910119 1.44950455 7.3874638 3.15172566 11 5 C11 5.33 11 5.66 11 6 C6.39374606 6.32136655 3.66486096 5.91033076 0 3 C0 2.01 0 1.02 0 0 Z " fill="#8EB6D5" transform="translate(126,182)"/>
<path d="M0 0 C0.33 0.66 0.66 1.32 1 2 C-0.375 4 -0.375 4 -2 6 C-2.66 6 -3.32 6 -4 6 C-4 6.66 -4 7.32 -4 8 C-5.65 8 -7.3 8 -9 8 C-6.14723863 5.06799526 -3.34920216 2.35684596 0 0 Z " fill="#9EC0DA" transform="translate(95,107)"/>
<path d="M0 0 C2.9375 0.8125 2.9375 0.8125 6 2 C6.33 2.99 6.66 3.98 7 5 C4.625 6.5625 4.625 6.5625 2 8 C1.34 7.67 0.68 7.34 0 7 C0.99 5.68 1.98 4.36 3 3 C2.01 2.67 1.02 2.34 0 2 C0 1.34 0 0.68 0 0 Z " fill="#8AB4D4" transform="translate(326,331)"/>
<path d="M0 0 C2.31 0 4.62 0 7 0 C7.66 1.32 8.32 2.64 9 4 C9.66 4 10.32 4 11 4 C10.67 4.66 10.34 5.32 10 6 C6.7 4.35 3.4 2.7 0 1 C0 0.67 0 0.34 0 0 Z " fill="#9BBED9" transform="translate(161,204)"/>
<path d="M0 0 C1.04187157 3.12561472 1.23843794 4.04680182 0 7 C-2.0625 8.25 -2.0625 8.25 -4 9 C-4.33 8.01 -4.66 7.02 -5 6 C-4.34 6 -3.68 6 -3 6 C-2.87625 5.195625 -2.7525 4.39125 -2.625 3.5625 C-2.41875 2.716875 -2.2125 1.87125 -2 1 C-1.34 0.67 -0.68 0.34 0 0 Z " fill="#659AC2" transform="translate(430,403)"/>
<path d="M0 0 C0.33 0 0.66 0 1 0 C1.33 4.29 1.66 8.58 2 13 C1.01 13.495 1.01 13.495 0 14 C-1.86987216 10.26025568 -1.30641834 5.53209172 -0.5 1.5 C-0.335 1.005 -0.17 0.51 0 0 Z " fill="#A6C4DB" transform="translate(109,358)"/>
<path d="M0 0 C2.5 2.3125 2.5 2.3125 5 5 C5 5.99 5 6.98 5 8 C4.01 8 3.02 8 2 8 C2 7.34 2 6.68 2 6 C1.34 5.67 0.68 5.34 0 5 C0 3.35 0 1.7 0 0 Z " fill="#A2C4DE" transform="translate(383,354)"/>
<path d="M0 0 C3.24299151 2.38957269 5.50902342 4.2047869 7 8 C6.01 8.33 5.02 8.66 4 9 C0 2.25 0 2.25 0 0 Z " fill="#9BBED9" transform="translate(178,286)"/>
<path d="M0 0 C5.75 0.75 5.75 0.75 8 3 C6.02 3 4.04 3 2 3 C2 3.66 2 4.32 2 5 C1.34 5 0.68 5 0 5 C0 3.35 0 1.7 0 0 Z " fill="#8DB5D4" transform="translate(107,173)"/>
<path d="M0 0 C0.66 0 1.32 0 2 0 C3.3271261 3.9813783 3.06915913 7.85045227 3 12 C0.60926555 8.17482487 0.44033448 4.40334476 0 0 Z " fill="#5C94BF" transform="translate(435,148)"/>
<path d="M0 0 C0.66 0.33 1.32 0.66 2 1 C2 2.32 2 3.64 2 5 C1.34 5 0.68 5 0 5 C0 5.66 0 6.32 0 7 C-0.66 7 -1.32 7 -2 7 C-2.33 5.35 -2.66 3.7 -3 2 C-2.01 1.34 -1.02 0.68 0 0 Z " fill="#72A2C7" transform="translate(415,421)"/>
<path d="M0 0 C2.97069541 2.54631035 4.4775751 5.42230149 6 9 C5.67 9.66 5.34 10.32 5 11 C4.01 10.34 3.02 9.68 2 9 C1.8125 6.375 1.8125 6.375 2 4 C1.34 4 0.68 4 0 4 C0 2.68 0 1.36 0 0 Z " fill="#9DC0D9" transform="translate(202,355)"/>
<path d="M0 0 C0.99 0 1.98 0 3 0 C6 5.75 6 5.75 6 8 C5.34 8 4.68 8 4 8 C3.67 7.01 3.34 6.02 3 5 C2.484375 4.484375 1.96875 3.96875 1.4375 3.4375 C0.963125 2.963125 0.48875 2.48875 0 2 C0 1.34 0 0.68 0 0 Z " fill="#8BB5D5" transform="translate(378,350)"/>
<path d="M0 0 C0 0.99 0 1.98 0 3 C-0.66 3.66 -1.32 4.32 -2 5 C-5.125 4.625 -5.125 4.625 -8 4 C-5.33333333 2.66666667 -2.66666667 1.33333333 0 0 Z " fill="#A8C7DF" transform="translate(328,334)"/>
<path d="M0 0 C0.99 0 1.98 0 3 0 C2 3 2 3 0.125 4.1875 C-2 5 -2 5 -5 5 C-4.67 4.01 -4.34 3.02 -4 2 C-2.68 2 -1.36 2 0 2 C0 1.34 0 0.68 0 0 Z " fill="#89B3D4" transform="translate(147,334)"/>
<path d="M0 0 C0.33 0.66 0.66 1.32 1 2 C0.67 2.99 0.34 3.98 0 5 C-2.31 5.33 -4.62 5.66 -7 6 C-7 5.34 -7 4.68 -7 4 C-4.69 2.68 -2.38 1.36 0 0 Z " fill="#6499C1" transform="translate(289,232)"/>
<path d="M0 0 C0.66 0.33 1.32 0.66 2 1 C-0.13464912 3.45484649 -1.70720291 4.68134222 -5 5 C-5.66 4.34 -6.32 3.68 -7 3 C-4.69631264 1.93347808 -2.35981813 0.93578995 0 0 Z " fill="#A6C6DD" transform="translate(141,336)"/>
<path d="M0 0 C0.33 0.66 0.66 1.32 1 2 C-0.30406884 4.01920337 -1.63823419 6.01924973 -3 8 C-3.33 8 -3.66 8 -4 8 C-4 6.02 -4 4.04 -4 2 C-2.68 1.34 -1.36 0.68 0 0 Z " fill="#9ABED9" transform="translate(368,320)"/>
<path d="M0 0 C2.0625 2.3125 2.0625 2.3125 4 5 C3.67 5.99 3.34 6.98 3 8 C2.34 8 1.68 8 1 8 C-0.35439668 5.29120665 -0.06501451 2.99066732 0 0 Z " fill="#9ABEDA" transform="translate(364,289)"/>
<path d="M0 0 C3.3 1.65 6.6 3.3 10 5 C6 6 6 6 4.078125 5.22265625 C2.38541667 4.1484375 0.69270833 3.07421875 -1 2 C-0.67 1.34 -0.34 0.68 0 0 Z " fill="#96BAD5" transform="translate(228,185)"/>
<path d="M0 0 C3.3 1.65 6.6 3.3 10 5 C6.83170302 6.05609899 6.01480825 6.13055309 3 5 C1.25 3.5625 1.25 3.5625 0 2 C0 1.34 0 0.68 0 0 Z " fill="#A1C1DA" transform="translate(198,168)"/>
<path d="M0 0 C1.45922693 0.11409593 2.91740598 0.24165544 4.375 0.375 C5.59316406 0.47941406 5.59316406 0.47941406 6.8359375 0.5859375 C9 1 9 1 11 3 C7.7 3 4.4 3 1 3 C0.67 2.01 0.34 1.02 0 0 Z " fill="#98BDD9" transform="translate(369,92)"/>
<path d="M0 0 C0.99 0 1.98 0 3 0 C2.75 2.375 2.75 2.375 2 5 C-0.0625 6.3125 -0.0625 6.3125 -2 7 C-1.34 4.69 -0.68 2.38 0 0 Z " fill="#98BDDA" transform="translate(66,143)"/>
<path d="M0 0 C0.99 0 1.98 0 3 0 C1.63016497 3.16115776 1.0109362 3.9927092 -2 6 C-1.125 1.125 -1.125 1.125 0 0 Z " fill="#89B0CD" transform="translate(419,419)"/>
<path d="M0 0 C2.31 1.98 4.62 3.96 7 6 C6.67 6.66 6.34 7.32 6 8 C1.125 4.5 1.125 4.5 0 0 Z " fill="#91B5D0" transform="translate(415,114)"/>
</svg>
